<svg width="20" height="20" viewBox="0 0 20 20" fill="none" xmlns="http://www.w3.org/2000/svg">
<path fill-rule="evenodd" clip-rule="evenodd" d="M10 1.5C5.313 1.5 1.5 5.313 1.5 10C1.5 14.687 5.313 18.5 10 18.5C14.687 18.5 18.5 14.687 18.5 10C18.5 5.313 14.687 1.5 10 1.5ZM10 20C4.486 20 0 15.514 0 10C0 4.486 4.486 0 10 0C15.514 0 20 4.486 20 10C20 15.514 15.514 20 10 20Z" fill="black"/>
<path fill-rule="evenodd" clip-rule="evenodd" d="M13.9482 11.0137C13.3952 11.0137 12.9432 10.5667 12.9432 10.0137C12.9432 9.46067 13.3862 9.01367 13.9382 9.01367H13.9482C14.5012 9.01367 14.9482 9.46067 14.9482 10.0137C14.9482 10.5667 14.5012 11.0137 13.9482 11.0137Z" fill="black"/>
<path fill-rule="evenodd" clip-rule="evenodd" d="M9.93851 11.0137C9.38551 11.0137 8.93451 10.5667 8.93451 10.0137C8.93451 9.46067 9.37651 9.01367 9.92951 9.01367H9.93851C10.4915 9.01367 10.9385 9.46067 10.9385 10.0137C10.9385 10.5667 10.4915 11.0137 9.93851 11.0137Z" fill="black"/>
<path fill-rule="evenodd" clip-rule="evenodd" d="M5.92971 11.0137C5.37671 11.0137 4.92471 10.5667 4.92471 10.0137C4.92471 9.46067 5.36771 9.01367 5.92071 9.01367H5.92971C6.48271 9.01367 6.92971 9.46067 6.92971 10.0137C6.92971 10.5667 6.48271 11.0137 5.92971 11.0137Z" fill="black"/>
</svg>
